<svg width="57" height="25" viewBox="0 0 57 25" fill="none" xmlns="http://www.w3.org/2000/svg">
<path d="M0.0500001 19V0.75H4.15V15.4H11.3V19H0.0500001ZM18.073 19.425C16.4897 19.425 15.273 18.9167 14.423 17.9C13.573 16.8833 13.148 15.3333 13.148 13.25V5.3H17.148V13.45C17.148 14.1833 17.3564 14.7667 17.773 15.2C18.1897 15.6333 18.748 15.85 19.448 15.85C20.1647 15.85 20.748 15.625 21.198 15.175C21.648 14.725 21.873 14.1167 21.873 13.35V5.3H25.873V19H22.698V15.8C22.1314 18.2167 20.648 19.425 18.248 19.425H18.073ZM35.7113 19.475C34.528 19.475 33.4947 19.2833 32.6113 18.9C31.7447 18.5 31.0197 17.9667 30.4363 17.3C29.853 16.6333 29.4197 15.8833 29.1363 15.05C28.853 14.2 28.7113 13.325 28.7113 12.425V11.95C28.7113 10.7 28.9697 9.53333 29.4863 8.45C30.0197 7.36667 30.803 6.49167 31.8363 5.825C32.8863 5.15833 34.1697 4.825 35.6863 4.825C36.9197 4.825 38.0113 5.06667 38.9613 5.55C39.9113 6.01667 40.6697 6.675 41.2363 7.525C41.803 8.375 42.1197 9.35 42.1863 10.45H38.2613C38.1947 9.83333 37.9447 9.31667 37.5113 8.9C37.078 8.46667 36.4697 8.25 35.6863 8.25C34.6697 8.25 33.9197 8.61667 33.4363 9.35C32.953 10.0667 32.7113 11.0167 32.7113 12.2C32.7113 13.3167 32.9363 14.2417 33.3863 14.975C33.853 15.6917 34.628 16.05 35.7113 16.05C36.5113 16.05 37.1363 15.8417 37.5863 15.425C38.0363 15.0083 38.303 14.4583 38.3863 13.775H42.2863C42.2197 14.9083 41.8947 15.9083 41.3113 16.775C40.7447 17.625 39.9697 18.2917 38.9863 18.775C38.0197 19.2417 36.928 19.475 35.7113 19.475ZM47.3445 18.7L43.1445 5.3H47.1695L50.1945 15.575H50.6945L53.1945 5.3H56.9945L53.1695 20.1C52.8862 21.1667 52.5029 22.0167 52.0195 22.65C51.5529 23.2833 50.9195 23.7333 50.1195 24C49.3362 24.2833 48.3445 24.425 47.1445 24.425H44.6945V21.025H47.5445C48.1779 21.025 48.6695 20.9 49.0195 20.65C49.3862 20.4 49.6529 19.95 49.8195 19.3L49.9445 18.7H47.3445Z" fill="#000958"/>
</svg>
