<svg width="35" height="38" viewBox="0 0 35 38" fill="none" xmlns="http://www.w3.org/2000/svg">
<g id="Group 8">
<g id="Page-1">
<g id="038---Pet-Health">
<g id="Group">
<path id="Shape" d="M16.5062 25.94C18.4079 25.94 18.4079 27.8597 20.334 27.8597C23.2047 27.8597 23.4762 24.1627 21.5771 22.2774C19.6779 20.3921 19.6754 17.8784 16.5062 17.8784C13.3371 17.8784 13.3371 20.3921 11.4354 22.2774C9.53381 24.1627 9.80781 27.9333 12.6785 27.9333C14.6046 27.9333 14.6046 25.94 16.5062 25.94Z" fill="#000958"/>
<path id="Oval" d="M13.2029 15.9637C14.5773 15.7666 15.4717 14.0748 15.2006 12.185C14.9296 10.2951 13.5957 8.92297 12.2213 9.1201C10.8468 9.31724 9.95241 11.009 10.2235 12.8989C10.4945 14.7887 11.8285 16.1608 13.2029 15.9637Z" fill="#000958"/>
<path id="Oval_2" d="M22.7839 12.8858C23.055 10.996 22.1605 9.30423 20.7861 9.10709C19.4117 8.90996 18.0778 10.2821 17.8067 12.1719C17.5357 14.0618 18.4301 15.7536 19.8045 15.9507C21.1789 16.1478 22.5128 14.7757 22.7839 12.8858Z" fill="#000958"/>
</g>
<path id="Oval_3" d="M8.93682 20.2525C9.87392 19.7985 10.1429 18.4176 9.5376 17.1682C8.93231 15.9187 7.68195 15.2738 6.74486 15.7278C5.80776 16.1818 5.53878 17.5627 6.14408 18.8122C6.74937 20.0616 7.99973 20.7065 8.93682 20.2525Z" fill="#000958"/>
<path id="Oval_4" d="M26.8611 18.7972C27.4664 17.5477 27.1974 16.1668 26.2603 15.7128C25.3232 15.2588 24.0729 15.9037 23.4676 17.1532C22.8623 18.4026 23.1312 19.7835 24.0683 20.2375C25.0054 20.6915 26.2558 20.0466 26.8611 18.7972Z" fill="#000958"/>
</g>
</g>
<path id="Union" d="M16.6587 0C26.7883 0 35 8.2117 35 18.3413C35 29.4827 25.4087 39.5433 12.6202 36.6827C10.2644 36.0096 6.56249 34.3269 4.54326 33.3173C2.52403 32.3077 2.86057 31.803 3.02884 31.6347C3.19711 31.4664 3.87018 31.1299 5.04807 31.6347C5.34307 31.7611 5.67367 31.91 6.03427 32.0724C7.11345 32.5583 8.46131 33.1652 9.92788 33.6539C10.9375 33.9904 12.6202 33.9904 13.4615 33.4856C13.9247 33.2077 14.6094 32.2776 14.1346 31.8029C13.7981 31.4663 12.7885 31.4663 11.1058 31.9712C9.42308 32.476 8.58173 31.6346 9.59135 30.9615C10.601 30.2885 12.2837 29.9519 14.4712 30.1202C15.217 30.1776 15.8259 30.2545 16.4313 30.331C17.6014 30.4788 18.7583 30.625 20.8654 30.625C27.6559 30.625 31.6346 24.6708 31.6346 18.3413C31.6346 10.0704 24.9296 3.36538 16.6587 3.36538C8.38766 3.36538 1.68269 10.0704 1.68269 18.3413C1.68269 23.1594 3.95792 27.446 7.49255 30.1855C2.95172 26.8817 0 21.5258 0 15.4806C0 6.35168 7.61916 0 16.6587 0Z" fill="url(#paint0_linear_11_721)"/>
</g>
<defs>
<linearGradient id="paint0_linear_11_721" x1="17.5" y1="0" x2="18.5" y2="47" gradientUnits="userSpaceOnUse">
<stop stop-color="#FF592C"/>
<stop offset="1" stop-color="#FF592C" stop-opacity="0"/>
</linearGradient>
</defs>
</svg>
